<svg xmlns="http://www.w3.org/2000/svg" aria-hidden="true" viewBox="0 31.27 999.9 937.56"> <path id="Tracé_1" fill="#A50C22" d="M822.3,708.2c-38.9,37.9-98.1,45.8-145.5,19.5L500,630.5l-166.7,91.7 &#9;c-47.8-25.1-66.3-84.2-41.2-132l148.4-81.7c37-20.5,82.1-20.5,119.2,0l148.4,81.7c47.5,24.8,106.1,6.8,131.5-40.4l6.9,13.6 &#9;C871.3,611.7,861.5,670.6,822.3,708.2"/> <path id="Tracé_2" fill="#D83D43" d="M333.4,722.2l-10.1,5.6c-59.8,32.8-134.9,11.1-167.8-48.7c-19.7-35.9-20.4-79.2-1.9-115.7 &#9;L368.1,142c47.3-25.5,106.4-7.8,132,39.5L292.1,590.2C267.1,638,285.6,697.1,333.4,722.2"/> <path id="Tracé_3" fill="#FFA936" d="M839.5,549.8c-25.4,47.2-84,65.2-131.5,40.4L500,181.5c-25.6-47.2-84.7-64.9-132-39.5l21.8-43 &#9;c30.7-60.8,105.1-85.2,165.9-54.4c23.4,11.9,42.5,30.9,54.4,54.4L839.5,549.8z"/> <g> 	<path fill="#1A1818" d="M95.9,839.3c-4.6-19.1-19.1-22.1-32.9-22.1s-28.5,3-33.1,22.1L0.2,962.7c0,0.4-0.1,0.7-0.2,1 &#9;&#9;c0,0.1,0,0.3,0,0.4c0.2,1.8,1.7,3,3.4,2.8h27.8c2.1-0.1,3.7-1.6,4-3.6l7.1-32.6h40.9l7.2,32.6c0.4,2,2,3.5,4,3.6h27.8h0.5 &#9;&#9;c1.7,0,3.1-1.5,3-3.2c-0.1-0.4-0.2-0.7-0.2-1L95.9,839.3z M48,903.4l12.1-54.9c0.5-2,0.9-3,2.8-3c1.9,0,2.2,1,2.6,3l12.1,54.9H48z"/> 	<path fill="#1A1818" d="M367.5,962.2L337.4,906c16.3-6.3,26.7-22.4,25.7-39.8v-2.5c0-35.2-26.1-46.6-59.9-46.6 &#9;&#9;c-13.5,0-27,0.9-40.4,2.6c-6.2,1-9,2.8-9,9.6v133.6c0,2.2,1.8,4,4,4h25.9c2.2,0,4-1.8,4-4v-50.5c3.8,0,10,0.4,14.2,0.4l2.2-0.2 &#9;&#9;l26.7,50.4c1,2.1,1.9,4,4,4h30.5c2.2-0.1,3-1,2.8-2.6C368.1,963.6,367.9,962.8,367.5,962.2z M329.4,866.3 &#9;&#9;c0,13.6-6.6,18.9-27.5,18.9c-2.2,0-12-0.2-14.2-0.4v-38.2c2.4-0.2,12.7-0.6,15.6-0.6c16.7,0,26.1,5.6,26.1,17.7V866.3z"/> 	<path fill="#1A1818" d="M549.2,817.1c-13.5,0-27,0.8-40.4,2.6c-6.2,1-9,2.8-9,9.6v134v0.1c0.1,2.2,1.9,3.7,4,3.7h25.7c2.2,0,4-1.8,4-4 &#9;&#9;v-48.4c5,0.2,11.3,0.6,16.1,0.6c29.7,0,59.3-11,59.2-48.3v-1.8C608.9,827.7,579.3,817.1,549.2,817.1z M575.1,866.8 &#9;&#9;c0,13.6-7.8,20.2-25.5,20.2c-2.2,0-14-0.2-16.1-0.4V846c2.3-0.2,13.3-0.6,16.1-0.6c16.8,0,25.5,5.5,25.5,19.7V866.8z"/> 	<path fill="#1A1818" d="M826.4,819.8c-12.7-2-25.6-2.8-38.4-2.6c-25.7,0-48.6,6.4-48.6,42.7v66.1c0,36.3,22.7,42.8,48.4,42.8 &#9;&#9;c12.9,0.2,25.9-0.7,38.6-2.6c2.8-0.4,4-1.6,3.9-3.9v-18.6c0-2.2-1.8-4-4-4h-40.4c-9.4,0-12.7-3.1-12.7-13.5V905h51.7 &#9;&#9;c2.2,0,4-1.8,4-4V882c0-2.2-1.8-4-4-4h-51.6v-18.1c0-10.3,3.4-13.5,12.7-13.5h40.4c2.2,0,4-1.8,4-4v-18.6 &#9;&#9;C830.4,821.2,829.2,820.2,826.4,819.8z"/> 	<path fill="#1A1818" d="M996,817.2h-26.2c-2.1-0.1-3.8,1.6-3.8,3.7v112.7c0,5.1-0.6,7.2-5.2,7.2h-10c-1.4,0-2.2,1.4-2.2,2.8V964 &#9;&#9;c-0.1,1.7,1.2,3.2,3,3.4c4.2,0.5,8.5,0.8,12.7,0.8c20.1,0,35.6-7.3,35.6-34.4V820.8C999.9,818.7,998,817.1,996,817.2z"/> </g> </svg>