<svg width="179" height="118" viewBox="0 0 179 118" fill="none" xmlns="http://www.w3.org/2000/svg">
<path d="M14.5312 14.0659C14.5366 14.0659 14.5421 14.058 14.5421 14.058C14.5855 14.0266 14.6289 13.9874 14.667 13.9404C14.6615 13.9404 14.6561 13.9404 14.6507 13.9325C14.6127 13.9717 14.5692 14.0188 14.5312 14.0659Z" fill="#808080"/>
<path d="M20.5492 12.0833L20.4542 12.1633C20.5085 12.15 20.5492 12.1367 20.5492 12.0833Z" fill="#808080"/>
<path fill-rule="evenodd" clip-rule="evenodd" d="M18.6035 14.1085C18.7779 13.9371 18.9522 13.7552 19.1265 13.5682H19.1212C19.4487 13.2046 19.7656 12.8566 20.1459 12.5397C20.2621 12.4358 20.373 12.3475 20.4787 12.2747C20.4942 12.2595 20.5021 12.2368 20.5099 12.2145C20.518 12.1913 20.5259 12.1685 20.5421 12.1553C20.4668 12.1834 20.4068 12.2278 20.3464 12.2725C20.284 12.3187 20.2212 12.3652 20.1406 12.3942C20.1089 12.3942 20.0772 12.3631 20.1089 12.3319C20.2199 12.254 20.3308 12.1708 20.4364 12.0877H20.4153C20.3836 12.0877 20.3836 12.0566 20.3836 12.0254C19.9904 11.9643 19.6884 12.2273 19.418 12.4626L19.4011 12.4773C19.3591 12.498 19.3193 12.4775 19.2881 12.4614C19.2722 12.4532 19.2586 12.4462 19.248 12.4462C19.0088 12.5246 18.8025 12.6692 18.5948 12.8147C18.4036 12.9487 18.2112 13.0836 17.9908 13.1682V13.1059C17.916 13.1311 17.8421 13.164 17.7679 13.197C17.6589 13.2455 17.5494 13.2941 17.4362 13.3189C17.2295 13.3658 17.0377 13.3598 16.8519 13.3539C16.7909 13.352 16.7304 13.3501 16.6703 13.3501C16.332 13.3829 15.998 13.4537 15.6644 13.5245L15.5558 13.5475C15.5505 13.5501 15.5452 13.5514 15.5399 13.5527C15.5346 13.554 15.5294 13.5553 15.5241 13.5578C15.3234 13.6098 15.1385 13.6825 14.9536 13.7864L14.9325 13.7968C14.9252 13.8063 14.918 13.8148 14.9112 13.8226C14.9032 13.8319 14.8959 13.8403 14.8902 13.8488C14.8268 13.9215 14.7687 13.9838 14.6789 14.0306C14.5463 14.0958 14.4317 14.1964 14.3189 14.2953C14.2701 14.3382 14.2213 14.3809 14.1719 14.4202C14.1613 14.4306 14.1402 14.4358 14.1243 14.4358C13.9606 14.5916 13.7968 14.7475 13.6278 14.8981C13.6172 14.9085 13.5697 14.9137 13.5327 14.9085C13.5327 14.9085 13.538 14.9085 13.538 14.9033L13.5539 14.8721L13.6331 14.7474C13.6489 14.7241 13.6635 14.7007 13.678 14.6773C13.6925 14.6539 13.707 14.6306 13.7229 14.6072C13.7651 14.5449 13.8074 14.4825 13.8549 14.4254C13.8655 14.4098 13.8655 14.3942 13.8549 14.3838C13.8444 14.3734 13.8285 14.3682 13.8127 14.3682C13.9659 14.2228 14.1455 14.0981 14.3303 13.989V13.9838C14.3092 13.989 14.2775 13.9734 14.2934 13.9527C14.3089 13.9336 14.3215 13.9118 14.3334 13.8912L14.3462 13.8695C14.3488 13.8643 14.3501 13.8604 14.3515 13.8565C14.3528 13.8527 14.3541 13.8488 14.3567 13.8436C14.3541 13.8384 14.3501 13.8345 14.3462 13.8306C14.3422 13.8267 14.3383 13.8228 14.3356 13.8176L14.3036 13.8383C14.2653 13.8627 14.2259 13.8879 14.193 13.9163C14.1697 13.9359 14.1479 13.9628 14.1256 13.9905C14.0771 14.0504 14.026 14.1137 13.95 14.1137C13.9447 14.1137 13.9183 14.1137 13.9025 14.1085C13.8866 14.1085 13.8761 14.1033 13.8708 14.0981C13.8708 14.0955 13.8708 14.0942 13.8714 14.0936C13.8721 14.0929 13.8734 14.0929 13.8761 14.0929C13.8761 14.0929 13.8813 14.0877 13.8813 14.0825C13.8813 14.0825 13.8814 14.0773 13.8866 14.0773C13.8893 14.0721 13.8919 14.0682 13.8946 14.0643C13.8972 14.0604 13.8998 14.0565 13.9025 14.0513C13.9051 14.0462 13.9078 14.0423 13.9104 14.0384C13.913 14.0345 13.9157 14.0306 13.9183 14.0254C13.921 14.0228 13.9223 14.0189 13.9236 14.015C13.9249 14.0111 13.9262 14.0072 13.9289 14.0046L13.9348 13.9939C13.9401 13.9848 13.9463 13.9739 13.95 13.963C13.9527 13.9578 13.9553 13.954 13.9579 13.9501C13.9606 13.9462 13.9632 13.9423 13.9659 13.9371C13.9738 13.9267 13.9804 13.915 13.987 13.9033C13.9936 13.8916 14.0002 13.8799 14.0081 13.8695C14.0134 13.8591 14.0187 13.8488 14.0292 13.8384C14.0345 13.828 14.0398 13.8189 14.0451 13.8098C14.0504 13.8007 14.0557 13.7916 14.0609 13.7812C14.0768 13.7552 14.0609 13.7345 14.0398 13.7293C14.0979 13.6565 14.1666 13.5942 14.2511 13.5475H14.2405C14.3135 13.5116 14.3885 13.4696 14.4629 13.4279C14.5069 13.4033 14.5514 13.3783 14.5944 13.3553C14.6103 13.3397 14.6261 13.3241 14.6473 13.3137C14.4729 13.3708 14.3145 13.4488 14.1613 13.5527C14.1613 13.5527 14.119 13.5682 14.1085 13.5786C14.1085 13.5786 14.0768 13.589 14.0345 13.5527C14.0292 13.5475 14.0292 13.5423 14.0292 13.5319C14.0476 13.4958 14.0855 13.4718 14.1264 13.446C14.1561 13.4272 14.1875 13.4074 14.2141 13.3812C14.2458 13.3812 14.2722 13.3812 14.2722 13.4124C14.8806 12.946 15.6307 12.8381 16.3833 12.7298C16.8462 12.6632 17.3101 12.5965 17.7426 12.4462C17.7875 12.415 17.8337 12.3851 17.8799 12.3553C17.9261 12.3254 17.9723 12.2955 18.0172 12.2644C18.0943 12.233 18.1633 12.1793 18.2364 12.1224C18.3087 12.0662 18.3849 12.007 18.4768 11.9631C18.7198 11.7812 18.9046 11.5734 18.9997 11.267C18.9997 11.2358 18.968 11.2046 18.968 11.2046C18.5666 11.6254 18.107 11.9579 17.6158 12.202C17.1474 12.4437 16.6455 12.4795 16.1486 12.5149C15.9619 12.5283 15.776 12.5415 15.5927 12.5656C15.6244 12.5033 15.6878 12.5033 15.7459 12.5033C15.7459 12.4295 15.7821 12.3978 15.8285 12.3571C15.8409 12.3462 15.854 12.3346 15.8674 12.3215H15.9572C15.9731 12.3215 15.981 12.3059 15.9889 12.2903C15.9968 12.2747 16.0048 12.2592 16.0206 12.2592C16.084 12.2592 16.1738 12.228 16.1421 12.228C16.0936 12.1671 16.0232 12.1912 15.9456 12.2178C15.8708 12.2434 15.7894 12.2713 15.7142 12.228C15.7422 12.198 15.7506 12.1621 15.7582 12.1293C15.7665 12.094 15.7739 12.0624 15.804 12.0462H15.9255C15.9255 11.9838 15.9889 11.9267 15.9889 11.9267C16.2644 11.7648 16.5304 11.6234 16.7914 11.4846C16.9658 11.3919 17.1381 11.3003 17.3094 11.2046C17.2748 11.2046 17.244 11.2185 17.2142 11.2321C17.1668 11.2536 17.1216 11.2741 17.0665 11.2358C17.0981 11.2358 17.0981 11.2137 17.0981 11.1916C17.0981 11.1696 17.0981 11.1475 17.1298 11.1475C17.328 11.0957 17.5044 11.0118 17.6845 10.9261C17.8117 10.8656 17.9407 10.8043 18.0806 10.7527C18.0391 10.7527 18.0007 10.7636 17.9632 10.7742C17.891 10.7947 17.8225 10.8142 17.7426 10.7527C17.7636 10.7424 17.7805 10.7292 17.7972 10.7162C17.831 10.6899 17.8638 10.6644 17.9274 10.6644V10.5761C17.9274 10.5449 17.9591 10.5449 17.9908 10.5449C17.9591 10.5449 17.9274 10.5137 17.9274 10.5137C17.9442 10.4807 17.9773 10.4739 18.0141 10.4664C18.0468 10.4596 18.0825 10.4523 18.1123 10.4254C18.0806 10.4254 18.0225 10.4254 18.0225 10.3942C18.1123 10.2748 18.2655 10.2436 18.4187 10.2124C18.4028 10.1813 18.3725 10.1813 18.346 10.1813C18.3196 10.1813 18.2972 10.1813 18.2972 10.1501C18.2972 10.1189 18.3289 10.1189 18.3606 10.1189H18.2972C18.2474 10.0945 18.2563 10.0508 18.2624 10.0206C18.264 10.0123 18.2655 10.005 18.2655 9.99943C18.3896 9.85648 18.4304 9.68778 18.4709 9.52004C18.4908 9.43787 18.5106 9.35593 18.5402 9.27736C18.5085 9.27736 18.4768 9.27736 18.4768 9.24619C18.1798 9.5685 17.709 9.69064 17.2618 9.80666L17.2196 9.81762H17.0665C16.9133 9.87995 16.6967 9.87995 16.5435 9.78645C16.4707 9.74907 16.4187 9.70236 16.3626 9.65191C16.3251 9.61822 16.2858 9.58285 16.2372 9.54749C15.9889 9.39684 15.7459 9.27736 15.4713 9.18386C14.7054 8.9449 13.9078 8.82022 13.1102 8.85139C13.3329 8.7316 13.5694 8.68397 13.8091 8.6357C13.9332 8.6107 14.0581 8.58554 14.1824 8.55009C14.2609 8.5275 14.3386 8.50421 14.4159 8.48103C14.854 8.34971 15.279 8.22231 15.7459 8.2488C15.6848 8.22758 15.6066 8.23525 15.5345 8.24231C15.5007 8.24562 15.4682 8.2488 15.4396 8.2488C15.0865 8.22308 14.7298 8.29995 14.3577 8.38015C14.2789 8.39714 14.1994 8.41427 14.119 8.43062C13.9733 8.46027 13.8347 8.50286 13.6959 8.54552C13.543 8.59253 13.3897 8.63962 13.2264 8.66957C13.1555 8.69347 13.0986 8.73416 13.0432 8.77379C12.954 8.83755 12.8687 8.89858 12.7351 8.88256V8.78905C13.0415 8.42542 13.4112 8.06698 13.9025 8.03581C14.3773 7.96021 14.8251 8.01406 15.2921 8.07024C15.3706 8.07968 15.4496 8.08918 15.5294 8.09815C15.9123 8.12827 16.2705 8.21178 16.6565 8.30176L16.6967 8.31114C16.7812 8.31114 16.8288 8.38388 16.8748 8.45432C16.9122 8.51156 16.9486 8.56729 17.0031 8.58126C17.0783 8.60662 17.1535 8.61135 17.2287 8.61608C17.3383 8.62297 17.448 8.62986 17.5577 8.70074C17.5577 8.67977 17.5541 8.65938 17.5505 8.63919C17.5435 8.59936 17.5367 8.56029 17.5577 8.51893C17.6258 8.4519 17.704 8.46988 17.7809 8.48759C17.8411 8.50144 17.9005 8.51512 17.9538 8.48776C18.1213 8.38612 17.9642 8.23008 17.807 8.07391C17.7312 7.99861 17.6553 7.92328 17.6158 7.854C17.6158 7.82283 17.6475 7.79166 17.6475 7.79166C17.7169 7.85246 17.7815 7.91538 17.8456 7.97776C18.0059 8.13388 18.1628 8.28661 18.3817 8.39425C18.5349 8.45659 18.9046 8.5449 18.8412 8.36308C18.7327 8.1276 18.5474 7.9234 18.3603 7.71724C18.2832 7.63233 18.2059 7.54708 18.1334 7.45919V7.33971C18.0853 7.33971 18.0737 7.32173 18.0594 7.29942C18.0548 7.29236 18.05 7.28487 18.0436 7.27738V7.1579C17.9662 7.11817 17.9489 7.05522 17.9314 6.99193C17.9215 6.95592 17.9115 6.91979 17.8905 6.88777C17.8375 6.80388 17.8337 6.70065 17.8298 6.59424C17.8267 6.50957 17.8235 6.42289 17.7954 6.34232C17.732 6.1605 17.7056 6.00985 17.6739 5.82804C17.6395 5.64203 17.6017 5.46418 17.5646 5.29006C17.4992 4.98277 17.4363 4.68706 17.3992 4.3787C17.3503 3.93794 17.578 3.56518 17.8107 3.18413C17.8797 3.07116 17.9491 2.95746 18.0119 2.84105C18.2285 2.47741 18.4715 2.11898 18.8729 1.87482C18.9605 1.52016 19.1988 1.2248 19.436 0.930899L19.454 0.908596C19.688 0.623385 20.0789 0.449026 20.3669 0.320526L20.3995 0.306003C20.8273 0.118991 21.2129 -0.000488281 21.2182 -0.000488281H0V15.9942H15.054C15.4566 15.7088 15.8567 15.5288 16.333 15.3144C16.5503 15.2167 16.7835 15.1117 17.04 14.9864C17.0944 14.9597 17.1589 14.9286 17.2306 14.8942C17.6605 14.6874 18.3455 14.3578 18.6035 14.1085ZM13.8268 11.9506C13.767 11.9564 13.7037 11.9626 13.7276 11.9157C13.7498 11.8106 13.8599 11.7791 13.9674 11.7483C14.0135 11.7351 14.059 11.7221 14.097 11.7034L14.1144 11.6947L14.1271 11.6881C14.1866 11.6572 14.2595 11.6193 14.3134 11.6413C14.3497 11.6918 14.3946 11.7048 14.4383 11.7174C14.4709 11.7269 14.5027 11.7361 14.5297 11.7604C14.4156 11.8724 14.2823 11.8835 14.1473 11.8947C14.0575 11.9021 13.967 11.9096 13.8806 11.9468C13.8651 11.9468 13.8461 11.9487 13.8268 11.9506ZM9.15359 11.2201C9.15359 11.2512 9.18528 11.2824 9.18528 11.2824C9.92478 10.4668 10.5956 9.77072 11.5464 9.1941C11.5718 9.18367 11.5624 9.1967 11.5498 9.214C11.531 9.23979 11.5054 9.27509 11.5781 9.25644C11.8928 9.18627 12.0342 8.92262 12.1717 8.66611C12.2073 8.59978 12.2426 8.53393 12.2806 8.47203C12.4248 8.24264 12.6297 8.09568 12.8361 7.94759C12.985 7.84079 13.1347 7.73341 13.2631 7.59412C13.2631 7.62528 13.2631 7.65645 13.2314 7.68762C13.2631 7.71879 13.2948 7.71879 13.3264 7.71879C13.3822 7.67769 13.443 7.66068 13.5013 7.64437C13.5756 7.62358 13.6459 7.60393 13.6962 7.53697C13.4532 7.44347 13.1416 7.4123 12.8986 7.5058C12.2542 7.8071 11.7048 8.29021 11.1819 8.83566C10.865 9.16293 10.5375 9.46942 10.1361 9.68241C9.86139 10.2227 9.55503 10.7058 9.15359 11.2201ZM11.7323 9.28805C11.7158 9.32053 11.6992 9.33745 11.6834 9.3536C11.669 9.36833 11.6552 9.38245 11.6426 9.40714C11.6109 9.46928 11.5793 9.49517 11.5212 9.52624C11.4896 9.52624 11.4579 9.52624 11.4579 9.49517C11.4896 9.37608 11.5793 9.25698 11.7006 9.22591C11.7323 9.23109 11.7323 9.26216 11.7323 9.28805ZM13.083 13.9013C13.1094 13.8754 13.1411 13.8442 13.1569 13.813C13.1833 13.7507 13.0197 13.7663 12.9933 13.7819C12.9694 13.8007 12.9541 13.8196 12.9357 13.8423L12.93 13.8494C12.908 13.8742 12.8822 13.8971 12.8561 13.9204C12.8383 13.9361 12.8204 13.9521 12.8033 13.9689C12.7295 14.0416 12.6556 14.1143 12.5764 14.1819C12.5237 14.2286 12.6925 14.2494 12.7295 14.2182C12.7717 14.1871 12.8086 14.1507 12.8456 14.1143C12.8596 14.1143 12.8737 14.112 12.8831 14.1105L12.8895 14.1095L12.8931 14.1091C12.9805 14.0804 13.0456 14.0209 13.109 13.963L13.1252 13.9481C13.1464 13.9273 13.12 13.9065 13.083 13.9013ZM12.6055 13.5635C12.6049 13.5636 12.6044 13.5638 12.6042 13.5641C12.6035 13.5647 12.6035 13.566 12.6035 13.5686C12.5711 13.5903 12.5391 13.6125 12.5072 13.6345C12.4246 13.6917 12.3425 13.7485 12.2549 13.7972C12.1711 13.8433 12.0852 13.8832 11.9985 13.9234C11.9485 13.9466 11.8983 13.9699 11.8482 13.9946C11.8482 13.9946 11.8482 13.9894 11.8429 13.9894C11.8323 13.9738 11.8112 13.9686 11.79 13.979C11.6738 14.0413 11.5735 14.1245 11.4837 14.2128C11.4678 14.2232 11.452 14.2387 11.4414 14.2543L11.3939 14.3011V14.3063C11.3728 14.3271 11.3516 14.3478 11.3252 14.379C11.3197 14.3844 11.3155 14.3898 11.3115 14.395C11.3038 14.4048 11.2968 14.4138 11.283 14.4206C11.2618 14.4309 11.209 14.4309 11.2143 14.3998V14.3946C11.1985 14.405 11.1773 14.4154 11.1615 14.4206C11.1536 14.4258 11.1456 14.4296 11.1377 14.4335C11.1298 14.4374 11.1219 14.4413 11.1139 14.4465C11.1087 14.4413 11.0981 14.4413 11.0928 14.4413C11.0875 14.4413 11.077 14.4413 11.0717 14.4465C11.0594 14.4569 11.047 14.4667 11.0347 14.4765C11.0101 14.4962 10.9854 14.5158 10.9608 14.54C10.8974 14.5972 10.8393 14.6595 10.7812 14.727C10.7812 14.727 10.7812 14.7322 10.7759 14.7322C10.7759 14.7348 10.7746 14.7361 10.7732 14.7374C10.7719 14.7387 10.7706 14.74 10.7706 14.7426L10.76 14.753C10.758 14.755 10.7568 14.757 10.7557 14.7587C10.754 14.7614 10.7527 14.7634 10.7495 14.7634L10.7442 14.7686C10.7389 14.779 10.7336 14.7894 10.7231 14.7998C10.7178 14.805 10.7072 14.8102 10.6967 14.8102C10.6914 14.805 10.6861 14.7998 10.6861 14.7946C10.6834 14.792 10.6821 14.7894 10.6808 14.7868C10.6795 14.7842 10.6782 14.7816 10.6755 14.779C10.6702 14.7712 10.6663 14.7634 10.6623 14.7556C10.6584 14.7478 10.6544 14.74 10.6491 14.7322V14.727C10.6491 14.7245 10.6478 14.7219 10.6465 14.7193C10.6452 14.7167 10.6438 14.7141 10.6438 14.7115L10.7389 14.6024L10.7442 14.5972C10.7495 14.592 10.7547 14.5855 10.76 14.579C10.7653 14.5725 10.7706 14.566 10.7759 14.5608C10.7838 14.5504 10.793 14.54 10.8023 14.5296C10.8115 14.5193 10.8208 14.5089 10.8287 14.4985C10.8313 14.4933 10.834 14.4894 10.8366 14.4855C10.8393 14.4816 10.8419 14.4777 10.8446 14.4725C10.8762 14.4309 10.9079 14.3894 10.9396 14.3426V14.3374C10.9449 14.3322 10.9502 14.3271 10.9502 14.3167C10.966 14.2959 10.9819 14.2751 10.9925 14.2543L11.0241 14.192V14.1868L11.0294 14.1816C11.0294 14.179 11.0307 14.1777 11.0321 14.1764C11.0334 14.1751 11.0347 14.1738 11.0347 14.1712C11.04 14.1582 11.0453 14.1465 11.0505 14.1349C11.0558 14.1232 11.0611 14.1115 11.0664 14.0985V14.0933L11.0717 14.0725C11.0743 14.0673 11.0756 14.0621 11.077 14.0569C11.0783 14.0517 11.0796 14.0465 11.0822 14.0413V14.0361C11.0849 14.0284 11.0862 14.0206 11.0875 14.0128C11.0889 14.005 11.0902 13.9972 11.0928 13.9894C11.0928 13.9842 11.0928 13.9738 11.0875 13.9686C11.1192 13.9115 11.1615 13.8595 11.209 13.8076C11.2064 13.8076 11.2037 13.8089 11.2011 13.8102C11.1996 13.8109 11.1981 13.8117 11.1965 13.8122C11.1954 13.8125 11.1943 13.8128 11.1932 13.8128C11.1697 13.8272 11.1494 13.8465 11.1288 13.8661C11.1124 13.8818 11.0957 13.8976 11.077 13.9115C11.0453 13.9374 10.9819 13.8959 11.0241 13.8647C11.0505 13.8439 11.0717 13.8232 11.0928 13.8024C11.0928 13.8024 11.0928 13.7972 11.0981 13.7972C11.1191 13.7785 11.1394 13.7574 11.1597 13.7361C11.1905 13.704 11.2216 13.6715 11.2566 13.6465C11.2935 13.6206 11.3199 13.5998 11.3516 13.5738C11.3569 13.5686 11.3622 13.5634 11.3675 13.5634C11.3886 13.5374 11.4097 13.5115 11.4361 13.4855C11.4361 13.4855 11.4414 13.4855 11.4414 13.4803C11.6228 13.3083 11.8777 13.2476 12.1379 13.1857C12.302 13.1466 12.4682 13.1071 12.6193 13.0387C12.7047 13.004 12.8 13.0177 12.8941 13.0312C12.9688 13.0419 13.0428 13.0525 13.1106 13.0387C13.2004 13.0387 13.2954 13.0387 13.3852 13.1011C13.1764 13.2098 12.977 13.3342 12.7799 13.4572C12.7228 13.4928 12.6657 13.5284 12.6088 13.5634C12.6073 13.5634 12.6062 13.5634 12.6055 13.5635ZM13.2655 11.4463C13.2408 11.4491 13.2248 11.4509 13.2385 11.4644C13.3283 11.5527 13.5132 11.5215 13.64 11.454C13.7297 11.3916 13.8248 11.3916 13.9463 11.3916C13.978 11.3916 13.978 11.3345 13.978 11.3033C14.0678 11.3345 14.1312 11.3345 14.221 11.3345C14.9552 11.1839 15.663 11.0332 16.3391 10.7007C15.655 10.1839 14.8116 9.95366 13.9855 9.72816C13.8484 9.69075 13.7119 9.65347 13.5766 9.61503C13.6063 9.61503 13.636 9.62472 13.666 9.63447C13.7264 9.65415 13.7876 9.6741 13.8512 9.61503C13.7674 9.54966 13.6741 9.53716 13.5817 9.52478C13.5052 9.51454 13.4294 9.50438 13.36 9.46438C13.3672 9.46438 13.3758 9.46601 13.3852 9.46777C13.4168 9.47374 13.457 9.48132 13.4815 9.43322C13.321 9.35432 13.1606 9.32752 12.9986 9.30047C12.9153 9.28655 12.8316 9.27257 12.7473 9.2514C12.9005 9.22023 12.9955 9.10075 12.9955 8.9501C12.9955 8.91893 12.9322 8.91893 12.9005 8.91893C12.536 9.10075 12.2877 9.43322 12.1346 9.82282C12.2727 9.90233 12.4215 9.89311 12.5674 9.88407C12.6503 9.87894 12.7322 9.87387 12.8107 9.88516C12.7414 9.94949 12.6413 9.96696 12.5451 9.98375C12.5092 9.99001 12.4739 9.99618 12.4409 10.0046C12.3458 10.0254 12.256 10.093 12.2877 10.1553C12.3089 10.1813 12.33 10.1917 12.3564 10.1968C12.2877 10.2176 12.2243 10.2488 12.1662 10.3059C12.2532 10.3729 12.3429 10.36 12.4314 10.3472C12.4665 10.3421 12.5015 10.3371 12.536 10.3371C12.536 10.3748 12.5613 10.3877 12.5877 10.401C12.6012 10.4078 12.615 10.4148 12.6258 10.4254C12.4726 10.4826 12.3511 10.6072 12.3194 10.6955C12.2816 10.7855 12.2117 10.844 12.1424 10.902C12.0957 10.9411 12.0492 10.9799 12.0131 11.028V11.1215C11.911 11.21 11.8061 11.2889 11.7027 11.3668C11.4902 11.5269 11.2838 11.6823 11.1204 11.9059C11.1521 11.9059 11.1521 11.9371 11.1521 11.9683C11.1229 12.0114 11.0813 12.0412 11.0418 12.0696C10.9958 12.1027 10.9526 12.1337 10.9355 12.1812C10.9355 12.2124 10.9355 12.2436 10.9672 12.2436C11.161 12.1809 11.3287 12.0755 11.4931 11.9721C11.6424 11.8783 11.7888 11.7861 11.9497 11.7293C12.0811 11.6984 12.1956 11.6401 12.3072 11.5833C12.402 11.535 12.4947 11.4878 12.5941 11.4592C12.6707 11.4436 12.7552 11.4215 12.8397 11.3994C12.9242 11.3774 13.0087 11.3553 13.0853 11.3397C13.0853 11.3709 13.0853 11.402 13.117 11.402H13.36C13.345 11.4374 13.2978 11.4427 13.2655 11.4463Z" fill="#000091"/>
<path d="M45 -0.000488281H27.4045C27.4045 -0.000488281 27.4364 0.00471328 27.5694 0.0723336C27.713 0.145155 27.8991 0.243985 28.0108 0.301202C28.2396 0.415637 28.4576 0.56128 28.6013 0.784947C28.6651 0.873374 28.7555 1.05543 28.697 1.17506C28.6332 1.32591 28.6013 1.57038 28.447 1.6276C28.2608 1.72123 28.0162 1.72123 27.7981 1.69002C27.6757 1.69002 27.5534 1.65881 27.4257 1.6276C27.8885 1.80965 28.3247 2.02292 28.6332 2.44425C28.6651 2.50666 28.7874 2.53267 28.9098 2.53267C28.9417 2.53267 28.9417 2.59509 28.9417 2.6211C28.8779 2.68352 28.8193 2.71473 28.8513 2.80315H28.9417C29.0959 2.74073 29.064 2.43904 29.2821 2.53267C29.4364 2.6211 29.5002 2.83436 29.4044 2.98521C29.2821 3.10484 29.1598 3.19847 29.0321 3.2869C29.0002 3.34932 29.0002 3.43774 29.0321 3.50016C29.1225 3.6198 29.1544 3.73943 29.1864 3.86427C29.2821 4.07754 29.3087 4.31681 29.4044 4.53007C29.5268 4.98261 29.6491 5.43514 29.6225 5.89288C29.6225 6.13215 29.5002 6.34542 29.5906 6.58989C29.6544 6.82916 29.8087 7.01121 29.931 7.22448C30.0534 7.40653 30.1757 7.52617 30.2715 7.70822C30.4576 8.00991 30.798 8.3116 30.6438 8.67571C30.5534 8.88898 30.2129 8.85777 29.9949 8.9774C29.8087 9.12825 29.963 9.37272 30.0587 9.52357C30.2129 9.79405 29.8725 9.9761 29.6544 10.0697C29.7183 10.1634 29.8406 10.1322 29.8725 10.1894C29.9044 10.3402 30.0587 10.4286 29.9629 10.5847C29.8406 10.7667 29.4683 10.8552 29.6544 11.1309C29.7768 11.3441 29.697 11.5782 29.6225 11.7967C29.5321 12.0671 29.2821 12.1868 29.064 12.2492C28.8779 12.3116 28.6598 12.3116 28.4789 12.2804C28.4151 12.2492 28.3566 12.218 28.2928 12.218C27.7662 12.1556 27.2396 12.0099 26.7183 12.0099C26.5641 12.0411 26.4098 12.0671 26.2875 12.1295C26.1492 12.2284 26.0215 12.3376 25.9151 12.452C25.9151 12.452 25.9151 12.452 25.9098 12.4572C25.8885 12.4833 25.8619 12.5041 25.8407 12.5301C25.83 12.5457 25.8141 12.5613 25.8034 12.5769C25.7928 12.5873 25.7875 12.5977 25.7768 12.6081C25.6864 12.7173 25.6066 12.837 25.5322 12.9566C25.5268 12.967 25.5215 12.9722 25.5162 12.9774C25.5109 12.993 25.5002 13.0034 25.4896 13.019C25.3885 13.2011 25.3141 13.3883 25.2556 13.5756C25.0428 14.2674 25.1385 14.8604 25.2875 15.006C25.33 15.0476 26.3087 15.3441 26.9896 15.6406C27.3087 15.781 27.5321 15.8851 27.7183 15.9995H44.9947V-0.000488281H45Z" fill="#E1000F"/>
<path d="M28.4497 5.83254C28.5717 5.86371 28.7574 5.86371 28.7574 5.92605C28.6937 6.16501 28.3277 6.22734 28.142 6.4715H28.0465C27.9563 6.53383 27.9829 6.68448 27.8927 6.68448C27.8025 6.65331 27.707 6.68448 27.6168 6.71565C27.7388 6.83513 27.8927 6.92864 28.0783 6.89747C28.1102 6.89747 28.1685 6.9598 28.1685 7.01695C28.1685 7.01695 28.2004 7.01695 28.2322 6.98578C28.264 6.98578 28.2959 6.98578 28.2959 7.01695V7.13643C28.2057 7.25591 28.0465 7.19876 27.9245 7.22474C28.1738 7.28708 28.4179 7.28708 28.6354 7.22474C28.8211 7.1624 28.6354 6.8611 28.7574 6.71046C28.6937 6.71046 28.7574 6.61695 28.6937 6.61695C28.7574 6.55461 28.8158 6.4663 28.8794 6.43513C28.9431 6.43513 29.0333 6.40396 29.0651 6.34163C29.0651 6.27929 28.9431 6.25332 28.9696 6.19098C29.1553 6.0715 29.3092 5.88968 29.2455 5.70787C29.2137 5.61436 28.9696 5.61436 28.8158 5.55722C28.6619 5.50008 28.4762 5.55722 28.2906 5.58839C28.1367 5.58839 27.9829 5.68189 27.829 5.70787C27.6115 5.7702 27.4258 5.88968 27.2454 6.00916C27.4629 5.92085 27.6751 5.88968 27.9245 5.82735C28.1102 5.83254 28.264 5.79098 28.4497 5.83254Z" fill="#808080"/>
<path d="M1.03055 34.6304V23.1873H3.9259L6.7231 27.9934L9.5203 23.1873H12.4157V34.6304H10.0928V26.424L7.541 30.707H5.90521L3.35337 26.424V34.6304H1.03055Z" fill="black"/>
<path d="M15.8568 34.6304V23.1873H18.1796V34.6304H15.8568Z" fill="black"/>
<path d="M21.6255 34.6304V23.1873H24.6027L29.7227 31.459V23.1873H32.0455V34.6304H29.0684L23.9484 26.3586V34.6304H21.6255Z" fill="black"/>
<path d="M35.4933 34.6304V23.1873H37.8162V34.6304H35.4933Z" fill="black"/>
<path d="M40.2315 33.0447L41.9164 31.4917C42.6034 32.3745 43.5195 32.8976 44.4519 32.8976C45.3679 32.8976 45.9241 32.4072 45.9241 31.5898C45.9241 29.481 40.7223 30.0532 40.7223 26.1788C40.7223 24.3643 42.2272 22.8603 44.4191 22.8603C46.1367 22.8603 47.4454 23.6286 48.4268 24.7893L46.7256 26.3259C46.0549 25.4595 45.3025 24.8874 44.4355 24.8874C43.6176 24.8874 43.0778 25.4105 43.0778 26.0971C43.0778 28.1732 48.2796 27.5847 48.2796 31.5081C48.2469 33.6659 46.562 34.9574 44.4682 34.9574C42.538 34.9574 41.2457 34.2544 40.2315 33.0447Z" fill="black"/>
<path d="M49.7029 25.2961V23.1873H59.0923V25.2961H55.559V34.6304H53.2362V25.2961H49.7029Z" fill="black"/>
<path d="M63.6843 22.2064L61.5741 19.9995H63.9624L65.8108 22.2064H63.6843ZM61.3778 34.6304V23.1873H68.0518V25.1162H63.7006V27.8299H67.3975V29.7589H63.7006V32.7014H68.0518V34.6304H61.3778Z" fill="black"/>
<path d="M70.9964 34.6304V23.1873H74.497C77.0161 23.1873 78.5701 24.4787 78.5701 26.6039C78.5701 27.9934 77.8994 29.0233 76.7217 29.5627L80.304 34.6304H77.5723L74.5133 30.0041H73.3192V34.6304H70.9964ZM74.6279 25.1162H73.3192V28.0751H74.6279C75.6093 28.0751 76.1819 27.503 76.1819 26.5712C76.1819 25.7047 75.6093 25.1162 74.6279 25.1162Z" fill="black"/>
<path d="M82.0207 34.6304V23.1873H88.6948V25.1162H84.3436V27.8299H88.0404V29.7589H84.3436V32.7014H88.6948V34.6304H82.0207Z" fill="black"/>
<path d="M1.03055 50.9778V39.5346H5.52897C9.16043 39.5346 11.6141 42.1666 11.6141 45.2562C11.6141 48.3459 9.16043 50.9778 5.52897 50.9778H1.03055ZM5.56169 41.6434H3.35337V48.869H5.56169C7.68822 48.869 9.22586 47.2833 9.22586 45.2562C9.22586 43.2128 7.68822 41.6434 5.56169 41.6434Z" fill="black"/>
<path d="M14.0996 50.9778V39.5346H20.7737V41.4636H16.4224V44.1773H20.1193V46.1063H16.4224V49.0488H20.7737V50.9778H14.0996Z" fill="black"/>
<path d="M28.209 50.9778V39.5346H30.5318V48.869H34.883V50.9778H28.209Z" fill="black"/>
<path d="M36.5622 44.2427H34.632L36.1042 39.5346H38.4597L36.5622 44.2427Z" fill="black"/>
<path d="M40.5132 50.9778V39.5346H47.1872V41.4636H42.836V44.1773H46.5329V46.1063H42.836V49.0488H47.1872V50.9778H40.5132Z" fill="black"/>
<path d="M50.1318 50.9778V39.5346H53.1089L58.2289 47.8064V39.5346H60.5517V50.9778H57.5746L52.4546 42.706V50.9778H50.1318Z" fill="black"/>
<path d="M62.969 49.3921L64.6539 47.8391C65.3409 48.7219 66.257 49.245 67.1893 49.245C68.1054 49.245 68.6616 48.7546 68.6616 47.9372C68.6616 45.8284 63.4597 46.4005 63.4597 42.5262C63.4597 40.7116 64.9647 39.2077 67.1566 39.2077C68.8742 39.2077 70.1828 39.976 71.1643 41.1367L69.4631 42.6733C68.7924 41.8069 68.04 41.2348 67.173 41.2348C66.3551 41.2348 65.8153 41.7579 65.8153 42.4445C65.8153 44.5206 71.0171 43.9321 71.0171 47.8554C70.9844 50.0133 69.2995 51.3047 67.2057 51.3047C65.2755 51.3047 63.9832 50.6018 62.969 49.3921Z" fill="black"/>
<path d="M73.698 50.9778V39.5346H80.372V41.4636H76.0208V44.1773H79.7177V46.1063H76.0208V49.0488H80.372V50.9778H73.698Z" fill="black"/>
<path d="M83.3166 50.9778V39.5346H85.6394V50.9778H83.3166Z" fill="black"/>
<path d="M94.3526 49.1305C95.4322 49.1305 96.3646 48.7546 97.0189 48.1334V46.139H94.1072V44.1609H99.3417V48.9671C98.2785 50.3893 96.4954 51.3047 94.3526 51.3047C90.6393 51.3047 88.1038 48.5257 88.1038 45.2562C88.1038 41.9867 90.5739 39.2077 94.189 39.2077C96.2664 39.2077 97.9677 40.1395 99.0146 41.529L97.1825 42.9512C96.5282 42.0194 95.4976 41.3819 94.189 41.3819C92.0297 41.3819 90.4921 43.0657 90.4921 45.2562C90.4921 47.4468 92.1115 49.1305 94.3526 49.1305Z" fill="black"/>
<path d="M102.17 50.9778V39.5346H105.148L110.268 47.8064V39.5346H112.59V50.9778H109.613L104.493 42.706V50.9778H102.17Z" fill="black"/>
<path d="M116.038 50.9778V39.5346H122.712V41.4636H118.361V44.1773H122.058V46.1063H118.361V49.0488H122.712V50.9778H116.038Z" fill="black"/>
<path d="M125.657 50.9778V39.5346H128.552L131.349 44.3408L134.146 39.5346H137.042V50.9778H134.719V42.7714L132.167 47.0544H130.531L127.98 42.7714V50.9778H125.657Z" fill="black"/>
<path d="M140.483 50.9778V39.5346H147.157V41.4636H142.806V44.1773H146.503V46.1063H142.806V49.0488H147.157V50.9778H140.483Z" fill="black"/>
<path d="M150.102 50.9778V39.5346H153.079L158.199 47.8064V39.5346H160.522V50.9778H157.544L152.424 42.706V50.9778H150.102Z" fill="black"/>
<path d="M162.792 41.6434V39.5346H172.181V41.6434H168.648V50.9778H166.325V41.6434H162.792Z" fill="black"/>
<path d="M0 65.7395L1.68486 64.1865C2.3719 65.0692 3.28794 65.5924 4.22034 65.5924C5.13638 65.5924 5.69255 65.1019 5.69255 64.2846C5.69255 62.1758 0.490737 62.7479 0.490737 58.8736C0.490737 57.059 1.99567 55.5551 4.18762 55.5551C5.90521 55.5551 7.21384 56.3234 8.19531 57.4841L6.49409 59.0207C5.82342 58.1543 5.07095 57.5821 4.20398 57.5821C3.38609 57.5821 2.84628 58.1053 2.84628 58.7918C2.84628 60.868 8.04809 60.2795 8.04809 64.2028C8.01538 66.3607 6.33051 67.6521 4.2367 67.6521C2.30647 67.6521 1.01419 66.9492 0 65.7395Z" fill="black"/>
<path d="M17.354 63.0422V55.882H19.6768V62.846C19.6768 65.8539 17.9101 67.6521 15.0311 67.6521C12.1685 67.6521 10.4018 65.8539 10.4018 62.846V55.882H12.7247V63.0422C12.7247 64.5788 13.5916 65.4779 15.0475 65.4779C16.4706 65.4779 17.354 64.5788 17.354 63.0422Z" fill="black"/>
<path d="M22.8077 67.3252V55.882H26.5863C29.1055 55.882 30.6431 57.1735 30.6431 59.2986C30.6431 61.4074 29.1055 62.6989 26.5863 62.6989H25.1305V67.3252H22.8077ZM26.6845 57.811H25.1305V60.7699H26.6845C27.666 60.7699 28.2548 60.1977 28.2548 59.2659C28.2548 58.3995 27.666 57.811 26.6845 57.811Z" fill="black"/>
<path d="M37.1772 54.9012H35.067L36.9155 52.6943H39.3037L37.1772 54.9012ZM32.8096 67.3252V55.882H39.4837V57.811H35.1324V60.5247H38.8293V62.4537H35.1324V65.3962H39.4837V67.3252H32.8096Z" fill="black"/>
<path d="M42.4282 67.3252V55.882H45.9288C48.4479 55.882 50.0019 57.1735 50.0019 59.2986C50.0019 60.6881 49.3312 61.718 48.1535 62.2575L51.7359 67.3252H49.0041L45.9452 62.6989H44.751V67.3252H42.4282ZM46.0597 57.811H44.751V60.7699H46.0597C47.0411 60.7699 47.6137 60.1977 47.6137 59.2659C47.6137 58.3995 47.0411 57.811 46.0597 57.811Z" fill="black"/>
<path d="M53.4525 67.3252V55.882H55.7754V67.3252H53.4525Z" fill="black"/>
<path d="M59.2213 67.3252V55.882H65.8953V57.811H61.5441V60.5247H65.241V62.4537H61.5441V65.3962H65.8953V67.3252H59.2213Z" fill="black"/>
<path d="M75.5287 63.0422V55.882H77.8515V62.846C77.8515 65.8539 76.0849 67.6521 73.2059 67.6521C70.3432 67.6521 68.5766 65.8539 68.5766 62.846V55.882H70.8994V63.0422C70.8994 64.5788 71.7664 65.4779 73.2222 65.4779C74.6454 65.4779 75.5287 64.5788 75.5287 63.0422Z" fill="black"/>
<path d="M80.9824 67.3252V55.882H84.483C87.0021 55.882 88.5561 57.1735 88.5561 59.2986C88.5561 60.6881 87.8854 61.718 86.7077 62.2575L90.29 67.3252H87.5583L84.4993 62.6989H83.3052V67.3252H80.9824ZM84.6138 57.811H83.3052V60.7699H84.6138C85.5953 60.7699 86.1678 60.1977 86.1678 59.2659C86.1678 58.3995 85.5953 57.811 84.6138 57.811Z" fill="black"/>
<path d="M1.03055 83.6726V72.2294H7.70458V74.1584H3.35337V76.8721H7.05026V78.801H3.35337V81.7436H7.70458V83.6726H1.03055Z" fill="black"/>
<path d="M9.71098 74.3382V72.2294H19.1004V74.3382H15.5671V83.6726H13.2443V74.3382H9.71098Z" fill="black"/>
<path d="M25.8767 83.6726V72.2294H30.3751C34.0066 72.2294 36.4603 74.8613 36.4603 77.951C36.4603 81.0406 34.0066 83.6726 30.3751 83.6726H25.8767ZM30.4078 74.3382H28.1995V81.5638H30.4078C32.5344 81.5638 34.072 79.9781 34.072 77.951C34.072 75.9076 32.5344 74.3382 30.4078 74.3382Z" fill="black"/>
<path d="M38.9458 83.6726V72.2294H45.6198V74.1584H41.2686V76.8721H44.9655V78.801H41.2686V81.7436H45.6198V83.6726H38.9458Z" fill="black"/>
<path d="M53.0551 83.6726V72.2294H55.3779V81.5638H59.7291V83.6726H53.0551Z" fill="black"/>
<path d="M61.0744 83.6726L65.4093 72.2294H68.4518L72.7867 83.6726H70.3166L69.2207 80.6973H64.6405L63.5445 83.6726H61.0744ZM65.3602 78.7193H68.5009L66.9306 74.4199L65.3602 78.7193Z" fill="black"/>
<path d="M79.291 83.6726V72.2294H82.7916C85.3107 72.2294 86.8647 73.5208 86.8647 75.646C86.8647 77.0355 86.194 78.0654 85.0163 78.6049L88.5987 83.6726H85.8669L82.808 79.0463H81.6138V83.6726H79.291ZM82.9225 74.1584H81.6138V77.1173H82.9225C83.9039 77.1173 84.4765 76.5451 84.4765 75.6133C84.4765 74.7469 83.9039 74.1584 82.9225 74.1584Z" fill="black"/>
<path d="M90.3153 83.6726V72.2294H96.9894V74.1584H92.6382V76.8721H96.3351V78.801H92.6382V81.7436H96.9894V83.6726H90.3153Z" fill="black"/>
<path d="M104.782 81.8253C106.091 81.8253 107.121 81.1878 107.775 80.256L109.608 81.6618C108.561 83.0841 106.859 83.9995 104.782 83.9995C101.167 83.9995 98.6969 81.2205 98.6969 77.951C98.6969 74.6815 101.167 71.9024 104.782 71.9024C106.859 71.9024 108.561 72.8343 109.608 74.2238L107.775 75.646C107.121 74.7142 106.091 74.0766 104.782 74.0766C102.623 74.0766 101.085 75.7604 101.085 77.951C101.085 80.1415 102.623 81.8253 104.782 81.8253Z" fill="black"/>
<path d="M111.869 83.6726V72.2294H114.192V76.7903H119.966V72.2294H122.289V83.6726H119.966V78.8991H114.192V83.6726H111.869Z" fill="black"/>
<path d="M125.737 83.6726V72.2294H132.411V74.1584H128.059V76.8721H131.756V78.801H128.059V81.7436H132.411V83.6726H125.737Z" fill="black"/>
<path d="M135.355 83.6726V72.2294H138.856C141.375 72.2294 142.929 73.5208 142.929 75.646C142.929 77.0355 142.258 78.0654 141.08 78.6049L144.663 83.6726H141.931L138.872 79.0463H137.678V83.6726H135.355ZM138.987 74.1584H137.678V77.1173H138.987C139.968 77.1173 140.541 76.5451 140.541 75.6133C140.541 74.7469 139.968 74.1584 138.987 74.1584Z" fill="black"/>
<path d="M151.371 81.8253C152.68 81.8253 153.711 81.1878 154.365 80.256L156.197 81.6618C155.15 83.0841 153.449 83.9995 151.371 83.9995C147.756 83.9995 145.286 81.2205 145.286 77.951C145.286 74.6815 147.756 71.9024 151.371 71.9024C153.449 71.9024 155.15 72.8343 156.197 74.2238L154.365 75.646C153.711 74.7142 152.68 74.0766 151.371 74.0766C149.212 74.0766 147.674 75.7604 147.674 77.951C147.674 80.1415 149.212 81.8253 151.371 81.8253Z" fill="black"/>
<path d="M158.458 83.6726V72.2294H160.781V76.7903H166.555V72.2294H168.878V83.6726H166.555V78.8991H160.781V83.6726H158.458Z" fill="black"/>
<path d="M172.326 83.6726V72.2294H179V74.1584H174.649V76.8721H178.346V78.801H174.649V81.7436H179V83.6726H172.326Z" fill="black"/>
<path fill-rule="evenodd" clip-rule="evenodd" d="M43 110.727L41.4607 112.123H41.0635L41.9738 110.53H43V110.727ZM41.8911 116.127H41.5601C41.1463 116.62 40.6828 117.014 40.2359 117.014C39.7725 117.014 39.5408 116.735 39.5408 116.127C39.5408 115.881 39.5739 115.618 39.6235 115.389L42.3214 114.502C42.8511 113.255 42.2221 112.713 41.4773 112.713C40.2028 112.713 38.7463 114.929 38.7463 116.702C38.7463 117.539 39.1435 117.999 39.7725 117.999C40.5008 117.982 41.2621 117.276 41.8911 116.127ZM40.9652 113.436C41.3294 113.436 41.6438 113.715 41.4783 114.355L39.8066 114.798C40.0714 114.01 40.568 113.436 40.9652 113.436ZM35.7026 113.468H36.5964L35.173 117.342C35.0406 117.67 35.2226 117.999 35.5702 117.999C36.5799 117.999 37.7881 117.145 38.2516 115.93H38.0033C37.6392 116.439 36.8447 116.997 36.2488 117.096L37.5564 113.468H38.8971L39.0626 112.91H37.755L38.2516 111.515H37.7385L36.8116 112.91L35.7026 113.058V113.468ZM34.4604 112.73C34.6424 112.73 34.8907 112.927 34.7748 113.288L33.1694 117.146C33.5831 117.08 34.0135 116.686 34.2617 116.325H34.5266C34.1459 117.294 33.2852 118 32.5404 118C32.3583 118 32.0935 117.803 32.2259 117.441L33.7155 113.584C33.3018 113.65 32.8714 114.044 32.6231 114.405H32.3749C32.7556 113.42 33.6824 112.73 34.4604 112.73ZM34.9249 111.745C35.2559 111.745 35.5373 111.482 35.5373 111.138C35.5373 110.809 35.2559 110.53 34.9249 110.53C34.5773 110.53 34.3125 110.809 34.3125 111.138C34.3125 111.466 34.5939 111.745 34.9249 111.745ZM27.6917 114.946C28.0558 114.158 27.9234 113.797 27.6917 113.797C27.4931 113.797 27.2613 114.011 27.0296 114.405H26.7814C27.162 113.567 27.6586 112.73 28.2048 112.73C28.6682 112.73 28.8337 113.19 28.8337 113.699V114.421C28.9082 114.335 28.9808 114.251 29.0516 114.168L29.0529 114.167L29.0539 114.166C29.7532 113.352 30.2871 112.73 30.9027 112.73C31.3827 112.73 31.6309 113.026 31.6309 113.469C31.6309 113.732 31.5482 114.06 31.3661 114.405L29.9923 117.146C30.4061 117.08 30.8365 116.686 31.0847 116.325H31.333C30.9523 117.31 30.0254 118 29.2475 118C28.8999 118 28.7013 117.638 28.8503 117.343L30.4392 114.306C30.6213 113.961 30.6544 113.732 30.373 113.732C29.9923 113.732 29.0986 114.355 28.6186 114.93L27.5758 117.655C27.46 117.934 27.3441 118 27.0793 118C26.6489 118 26.4338 117.72 26.6324 117.277L27.6917 114.946ZM26.6146 113.895C26.7967 113.271 26.6974 112.713 26.2174 112.713C25.6188 112.713 25.4313 113.105 24.8512 114.318L24.8105 114.404V113.681C24.8105 113.173 24.645 112.713 24.1815 112.713C23.6353 112.713 23.1388 113.55 22.7581 114.387H23.0064C23.2712 114.01 23.5195 113.78 23.7181 113.78C23.9498 113.78 24.0822 114.141 23.7181 114.929L22.6588 117.26C22.4602 117.703 22.6754 117.982 23.1057 117.982C23.3705 117.982 23.4864 117.916 23.6022 117.637L24.645 114.913C24.9429 114.551 25.2077 114.24 25.5388 113.895H26.6146ZM21.3847 114.355C21.5502 113.715 21.2358 113.436 20.8716 113.436C20.4744 113.436 19.9779 114.01 19.713 114.798L21.3847 114.355ZM21.7975 116.127H21.4665C21.0527 116.62 20.5892 117.014 20.1423 117.014C19.6789 117.014 19.4472 116.735 19.4472 116.127C19.4472 115.881 19.4803 115.618 19.5299 115.389L22.2278 114.502C22.7575 113.255 22.1285 112.713 21.3837 112.713C20.1092 112.713 18.6527 114.929 18.6527 116.702C18.6527 117.539 19.0499 117.999 19.6789 117.999C20.4072 117.982 21.1685 117.276 21.7975 116.127ZM16.5028 113.468H15.609V113.058L16.718 112.91L17.6449 111.515H18.158L17.6614 112.91H18.969L18.8035 113.468H17.4628L16.1552 117.096C16.7511 116.997 17.5456 116.439 17.9097 115.93H18.158C17.6945 117.145 16.4863 117.999 15.4766 117.999C15.129 117.999 14.947 117.67 15.0794 117.342L16.5028 113.468ZM10.8762 116.472C10.8762 115.274 12.2168 113.665 12.9616 113.665C13.1272 113.665 13.2927 113.682 13.4251 113.731L12.6472 115.799C12.2003 116.341 11.5051 116.998 11.1741 116.998C10.992 116.998 10.8762 116.833 10.8762 116.472ZM14.5675 112.467L14.9813 112.5L13.5414 115.783C13.1938 116.571 13.3427 116.932 13.5414 116.932C13.74 116.932 13.9882 116.702 14.2531 116.325H14.5013C14.1207 117.162 13.6241 117.999 13.0779 117.999C12.6145 117.999 12.3331 117.507 12.4159 116.62L12.449 116.308L12.3588 116.433C11.7659 117.255 11.2294 117.999 10.678 117.999C10.198 117.999 9.94969 117.704 9.94969 117.26C9.94969 115.356 12.0517 112.927 14.0213 112.927H14.1041L14.5675 112.467ZM10.7762 113.895C10.9583 113.271 10.859 112.713 10.379 112.713C9.78038 112.713 9.59294 113.105 9.01286 114.318L8.97212 114.404V113.681C8.97212 113.173 8.8066 112.713 8.34316 112.713C7.79696 112.713 7.30042 113.55 6.91974 114.387H7.16801C7.43283 114.01 7.6811 113.78 7.86317 113.78C8.09489 113.78 8.2273 114.141 7.86317 114.929L6.80388 117.276C6.60526 117.72 6.82043 117.999 7.25077 117.999C7.51559 117.999 7.63145 117.933 7.74731 117.654L8.79005 114.929C9.08798 114.568 9.3528 114.256 9.68383 113.911H10.7762V113.895ZM3.9558 117.505L3.85649 117.801H0L0.0993088 117.489C1.29101 117.275 1.48963 117.177 1.98618 115.847L3.06202 112.991C3.54201 111.661 3.4427 111.563 2.39996 111.35L2.49927 111.054H7.51437L7.21644 112.646H6.85231C6.85231 111.694 6.753 111.448 5.84267 111.448H5.61095C4.71717 111.448 4.60131 111.579 4.35304 112.269L3.64132 114.189H4.68406C5.37923 114.189 5.64405 113.763 5.95853 113.204H6.32266L5.46198 115.535H5.09785C5.18061 114.829 5.18061 114.55 4.5351 114.55H3.49236L3.01237 115.864C2.49351 117.23 2.64178 117.258 3.8773 117.49C3.903 117.495 3.92916 117.5 3.9558 117.505Z" fill="black"/>
<path fill-rule="evenodd" clip-rule="evenodd" d="M7.233 98.1692L5.69366 99.2696V99.2861H5.29641L6.20677 97.9722H7.233V98.1692ZM17.9933 105.872L20.4595 99.3681L20.3767 99.2695L18.6719 99.4666V99.6637L19.0029 99.9101C19.2856 100.128 19.2107 100.332 18.9762 100.969L18.9367 101.076L17.0498 106.069C16.9008 106.365 17.0995 106.726 17.447 106.726C18.225 106.726 19.0526 106.02 19.4333 105.051H19.185C18.9202 105.412 18.3905 105.806 17.9933 105.872ZM29.2971 100.863L30.8364 99.4666V99.2695H29.8102L28.8999 100.863H29.2971ZM29.3953 104.854H29.7264C29.1139 106.02 28.3526 106.726 27.6243 106.726C26.9953 106.726 26.598 106.266 26.598 105.428C26.598 103.655 28.0546 101.437 29.3291 101.437C30.0574 101.437 30.7029 101.979 30.1733 103.228L27.4587 104.115C27.4091 104.345 27.376 104.607 27.376 104.854C27.376 105.461 27.6077 105.741 28.0712 105.741C28.5181 105.741 28.9815 105.346 29.3953 104.854ZM29.3118 103.08C29.4773 102.456 29.1628 102.177 28.7987 102.177C28.418 102.177 27.9214 102.751 27.64 103.523L29.3118 103.08ZM24.4455 102.209H23.5517V101.798L24.6606 101.651L25.5876 100.255H26.1007L25.6041 101.651H26.9117L26.7462 102.209H25.4055L24.0979 105.839C24.6937 105.74 25.4882 105.182 25.8524 104.673H26.1007C25.6372 105.888 24.4289 106.742 23.4192 106.742C23.0717 106.742 22.8896 106.414 23.022 106.085L24.4455 102.209ZM22.6246 102.012C22.724 101.651 22.4922 101.454 22.2936 101.454C21.5157 101.454 20.5888 102.16 20.2081 103.129H20.4563C20.7046 102.767 21.135 102.373 21.5488 102.308L20.0591 106.167C19.9267 106.529 20.1915 106.726 20.3736 106.726C21.1184 106.726 21.9791 106.019 22.3598 105.05H22.1115C21.8633 105.412 21.4329 105.806 21.0191 105.872L22.6246 102.012ZM23.3873 99.8772C23.3873 100.206 23.1059 100.485 22.7748 100.485C22.4438 100.485 22.1624 100.206 22.1624 99.8772C22.1624 99.5487 22.4272 99.2695 22.7748 99.2695C23.1059 99.2695 23.3873 99.5487 23.3873 99.8772ZM15.0302 102.406C14.2854 102.406 12.9447 104.016 12.9447 105.215C12.9447 105.576 13.0606 105.741 13.2592 105.741C13.5737 105.741 14.2689 105.084 14.7158 104.542L15.4937 102.472C15.3447 102.423 15.1958 102.406 15.0302 102.406ZM17.05 101.24L16.6362 101.208L16.1727 101.667H16.09C14.1203 101.667 12.0182 104.098 12.0182 106.003C12.0182 106.447 12.2665 106.742 12.7465 106.742C13.298 106.742 13.8345 105.998 14.4274 105.176L14.5175 105.051L14.4844 105.363C14.4017 106.25 14.6831 106.742 15.1465 106.742C15.6927 106.742 16.1893 105.905 16.57 105.067H16.3217C16.0569 105.445 15.8086 105.675 15.61 105.675C15.4114 105.675 15.2624 105.314 15.61 104.525L17.05 101.24ZM8.70687 106.562C7.99514 106.841 7.49858 107.17 7.49858 107.679C7.49858 108.155 7.94548 108.352 8.87239 108.352C10.1138 108.352 10.7924 107.991 10.7924 107.515C10.7924 107.301 10.511 107.202 9.7662 106.956C9.28619 106.808 8.9386 106.677 8.70687 106.562ZM9.53339 104.542C9.20235 104.542 9.08648 104.263 9.08648 103.967C9.08648 103.014 9.54994 101.832 10.2948 101.832C10.6258 101.832 10.7417 102.111 10.7417 102.407C10.7251 103.376 10.2617 104.542 9.53339 104.542ZM10.164 106.085C11.0744 106.365 11.6372 106.578 11.6372 107.202C11.6372 108.007 10.1475 108.96 8.34331 108.943C7.30054 108.943 6.40673 108.664 6.40673 107.991C6.40673 107.35 7.0026 106.825 8.45918 106.398C8.26055 106.266 8.17779 106.102 8.17779 105.872C8.17779 105.478 8.54194 105.166 9.17091 104.87C8.55849 104.788 8.16124 104.328 8.16124 103.655C8.16124 102.62 9.02194 101.437 10.3792 101.437C10.6606 101.437 10.9089 101.503 11.1075 101.635H12.5972L12.4317 102.193H11.5544C11.6041 102.341 11.6372 102.505 11.6372 102.686C11.6372 103.688 10.8261 104.837 9.53506 104.903C9.20402 105.084 9.0385 105.33 9.0385 105.527C9.0385 105.759 9.30925 105.837 9.90765 106.011C9.98727 106.034 10.0727 106.058 10.164 106.085ZM4.91594 103.277C5.56146 103.277 5.57801 103.556 5.4787 104.263H5.84284L6.70355 101.93H6.3394C6.02492 102.489 5.76009 102.916 5.0649 102.916H3.64143L4.33662 100.994C4.5849 100.304 4.70076 100.173 5.59457 100.173H6.22354C7.1339 100.173 7.23321 100.419 7.23321 101.372H7.59735L7.89529 99.7788H2.49935L2.40004 100.074C3.44281 100.288 3.54212 100.386 3.06211 101.717L1.98624 104.591C1.48968 105.921 1.29105 106.02 0.0827598 106.233L0 106.545H5.99181L7.06769 104.854H6.65389C5.95871 105.527 5.26353 106.151 3.90626 106.151C2.41338 106.151 2.43997 106.079 2.8879 104.858C2.91674 104.779 2.94733 104.696 2.97935 104.607L3.47591 103.293H4.91594V103.277Z" fill="black"/>
<path fill-rule="evenodd" clip-rule="evenodd" d="M9.85999 89.2137C10.1909 89.2137 10.4722 88.9348 10.4722 88.6066C10.4722 88.2785 10.1909 87.9995 9.85999 87.9995C9.51253 87.9995 9.2478 88.2785 9.2478 88.6066C9.2478 88.9512 9.51253 89.2137 9.85999 89.2137ZM14.7593 91.2808C14.7593 90.4932 14.5608 90.1978 13.9982 90.1978C13.3033 90.1978 12.658 90.9362 12.0127 91.8223L13.4026 88.1303L13.3198 88.0155L11.6156 88.2124V88.4093L11.9465 88.6554C12.2347 88.8777 12.1511 89.0999 11.9057 89.753L11.8804 89.8204L10.3747 93.7257C10.2423 94.0539 10.0934 94.4477 10.0934 94.5461C10.0934 95.0056 10.7221 95.4486 11.3013 95.4486C12.5918 95.465 14.7593 93.1022 14.7593 91.2808ZM29.1046 89.6071L30.6434 88.2124V88.0155H29.6175L28.7075 89.6071H29.1046ZM29.2042 93.5944H29.5352C28.9064 94.7594 28.1453 95.465 27.4173 95.4486C26.7886 95.4486 26.3915 95.0056 26.3915 94.1687C26.3915 92.3966 27.8475 90.1814 29.1215 90.1814C29.8495 90.1814 30.4948 90.7229 29.9654 91.97L27.2684 92.8561C27.2187 93.0858 27.1857 93.3483 27.1857 93.5944C27.1857 94.2016 27.4173 94.4805 27.8806 94.4805C28.3273 94.4805 28.7906 94.0867 29.2042 93.5944ZM29.1199 91.8224C29.2854 91.1988 28.971 90.9199 28.607 90.9199C28.2099 90.9199 27.7135 91.4942 27.4488 92.2654L29.1199 91.8224ZM24.237 90.9536H23.3436V90.5434L24.4521 90.3957L25.3787 89.001H25.8916L25.3953 90.3957H26.7024L26.5369 90.9536H25.1967L23.8896 94.5799C24.4852 94.4815 25.2794 93.9236 25.6434 93.4149H25.8916C25.4283 94.6292 24.2205 95.4824 23.2112 95.4824C22.8637 95.4824 22.6817 95.1542 22.8141 94.8261L24.237 90.9536ZM22.8834 91.3802C23.0654 90.7567 22.9661 90.1988 22.4863 90.1988C21.8879 90.1988 21.7005 90.5908 21.1206 91.8037L21.0799 91.8889V91.1669C21.0799 90.6583 20.9145 90.1988 20.4512 90.1988C19.9052 90.1988 19.4088 91.0356 19.0282 91.8725H19.2764C19.5412 91.4951 19.7893 91.2654 19.9713 91.2654C20.203 91.2654 20.3354 91.6264 19.9713 92.414L18.9124 94.744C18.7139 95.187 18.929 95.466 19.3591 95.466C19.6239 95.466 19.7397 95.4003 19.8555 95.1214L20.8979 92.3976C21.1957 92.0366 21.4605 91.7248 21.7914 91.3802H22.8834ZM17.6388 91.8224C17.8042 91.1988 17.4898 90.9199 17.1258 90.9199C16.7287 90.9199 16.2489 91.4942 15.9676 92.2654L17.6388 91.8224ZM18.0514 93.5944H17.7205C17.3068 94.0867 16.8435 94.4805 16.3968 94.4805C15.9335 94.4805 15.7019 94.2016 15.7019 93.5944C15.7019 93.3483 15.735 93.0858 15.7846 92.8561L18.4816 91.97C19.011 90.7229 18.3823 90.1814 17.6377 90.1814C16.3637 90.1814 14.9077 92.3966 14.9077 94.1687C14.9077 95.0056 15.3048 95.4486 15.9335 95.4486C16.6615 95.465 17.4226 94.7594 18.0514 93.5944ZM11.1034 94.2185C11.1034 94.4319 11.4839 94.678 11.7486 94.678C12.8241 94.678 13.8334 92.7582 13.8169 91.6916C13.8169 91.3306 13.6349 91.183 13.3867 91.183C12.9896 91.183 12.2616 91.7737 11.7983 92.3316L11.3681 93.4802C11.2192 93.8576 11.1034 94.1529 11.1034 94.2185ZM9.36633 90.1988C9.56488 90.1988 9.79653 90.3957 9.69725 90.7567L8.10885 94.6127C8.5225 94.5471 8.95269 94.1533 9.20088 93.7923H9.44906C9.06851 94.7604 8.20812 95.466 7.46356 95.466C7.26501 95.466 7.00028 95.2691 7.13264 94.9081L8.62177 91.0521C8.20812 91.1177 7.77793 91.5115 7.52974 91.8725H7.28156C7.66211 90.9044 8.58868 90.1988 9.36633 90.1988ZM2.49842 88.4923H6.05578L5.95651 88.804C4.74866 89.0173 4.55011 89.1158 4.05373 90.4449L2.9948 93.3328C2.48188 94.7111 2.61425 94.8752 3.52427 94.8752C4.64859 94.8752 5.38582 94.0648 6.02956 93.3572C6.07739 93.3046 6.12469 93.2526 6.1716 93.2015H6.58525L5.4105 95.269H0L0.0992751 94.9736C1.29058 94.7603 1.48913 94.6619 1.9855 93.3328L3.06098 90.4285C3.54081 89.0994 3.44154 89.0009 2.39915 88.7876L2.49842 88.4923Z" fill="black"/>
</svg>
