<svg xmlns="http://www.w3.org/2000/svg" viewBox="0 -0.01 123.2 22.77">
  <defs>
    <style>
      .cls-1 {
        fill: #5ca4de;
      }

      .cls-2 {
        fill: #2a81c8;
      }

      .cls-3 {
        fill: #102a49;
      }

      .cls-4 {
        fill: #0060b0;
      }
    </style>
  </defs>
  <g id="Groupe_88" data-name="Groupe 88" transform="translate(0 -0.974)">
    <g id="Groupe_1" data-name="Groupe 1" transform="translate(0 1)">
      <path id="Tracé_5" data-name="Tracé 5" class="cls-1" d="M11.4,12.1c-.3,0-.6.2-.6.4v7.2a.738.738,0,0,0,.5.6l7.6,2.4c.3.1.5,0,.5-.3v-10c0-.2-.3-.4-.6-.4H11.4Z"/>
      <path id="Tracé_6" data-name="Tracé 6" class="cls-2" d="M8.8,10.7c.3,0,.6-.2.6-.4V3.1a.738.738,0,0,0-.5-.6L1.3,0A.35.35,0,0,0,.8.3v10c0,.2.3.4.6.4Z"/>
      <path id="Tracé_7" data-name="Tracé 7" class="cls-3" d="M19.7,10.7c.3,0,.6-.2.6-.4V6.8a.738.738,0,0,0-.5-.6L11.4,3.3c-.3-.1-.5,0-.5.3v6.7c0,.2.3.4.6.4Z"/>
      <path id="Tracé_8" data-name="Tracé 8" class="cls-4" d="M.6,12.1c-.3,0-.6.2-.6.4V16a.738.738,0,0,0,.5.6l8.4,2.9c.3.1.5,0,.5-.3V12.5c0-.2-.3-.4-.6-.4H.6Z"/>
    </g>
    <g id="Groupe_2" data-name="Groupe 2">
      <path id="Tracé_9" data-name="Tracé 9" class="cls-3" d="M35.5,10.3A3.351,3.351,0,0,0,32.6,9c-1.3,0-2.6.6-2.6,2.1,0,3.2,7.7,1.4,7.7,7.2,0,3.5-2.7,5.2-5.9,5.2a6.614,6.614,0,0,1-5.3-2.2l2.2-2.1a3.728,3.728,0,0,0,3.2,1.7c1.3,0,2.8-.7,2.8-2.2,0-3.5-7.7-1.5-7.7-7.3,0-3.3,3-4.9,6-4.9a6.415,6.415,0,0,1,4.6,1.7Z"/>
      <path id="Tracé_10" data-name="Tracé 10" class="cls-3" d="M49.1,20.8c3.4,0,5.6-2.6,5.6-6A5.516,5.516,0,0,0,49.1,9a5.575,5.575,0,0,0-5.6,5.8c0,3.4,2.2,6,5.6,6M49,6.4c5.1-.1,8.6,3.3,8.6,8.5,0,5.1-3.6,8.4-8.6,8.5-5,0-8.6-3.4-8.6-8.4C40.5,9.8,44,6.4,49,6.4"/>
      <path id="Tracé_11" data-name="Tracé 11" class="cls-3" d="M75.5,21.8a13.55,13.55,0,0,1-6.7,1.6c-5,0-8.6-3.4-8.6-8.4a8.188,8.188,0,0,1,8.6-8.6,9.275,9.275,0,0,1,6.4,2L73,10.6A6.074,6.074,0,0,0,68.8,9a5.575,5.575,0,0,0-5.6,5.8c0,3.5,2.2,6,5.6,6a8.552,8.552,0,0,0,3.8-.8V16.2H69.3V13.6h6.2Z"/>
      <rect id="Rectangle_15" data-name="Rectangle 15" class="cls-3" width="2.9" height="16.2" transform="translate(79.5 6.8)"/>
      <path id="Tracé_12" data-name="Tracé 12" class="cls-3" d="M99.8,6.8,95.4,18.1,91.1,6.8H86.7V23h2.7V9.5h.1L94.4,23h2l4.9-13.5h.1V23h2.7V6.8Z"/>
      <path id="Tracé_13" data-name="Tracé 13" class="cls-3" d="M114.9,10.2l2.5,6.6h-5Zm-1.2-3.4-7,16.2h3.2l1.5-3.7h7l1.5,3.7h3.3l-7-16.2h-2.5Z"/>
    </g>
  </g>
</svg>